<svg xmlns="http://www.w3.org/2000/svg" id="Layer_1" width="40" height="40" enable-background="new 0 0 40 40" viewBox="0 0 128 128"><path id="XMLID_292_" fill="#d93e5b" d="M48.8,106.8c7.7-0.6,22.2-3.2,32.1-13.1c5.8-5.8,7.6-11.9,5.6-18.6C85.1,70.2,81.7,65,76,58.8
		c-0.3-0.3-0.7-0.7-1-1C67.3,50,61,45.6,55.3,43.9c-1.8-0.5-3.5-0.8-5.1-0.8c-4.8,0-9.2,2.1-13.5,6.4c-9.9,9.9-12.5,24.4-13.1,32.1
		c-0.8,10.2,0.7,18.4,2.8,22.2C30,106,38.4,107.7,48.8,106.8z M74,73.4c1.6-1.6,4.1-1.6,5.7,0c1.6,1.6,1.6,4.1,0,5.7
		c-1.6,1.6-4.1,1.6-5.7,0C72.5,77.5,72.5,74.9,74,73.4z M64.6,88.5c1.6,1.6,1.6,4.1,0,5.7c-1.6,1.6-4.1,1.6-5.7,0
		c-1.6-1.6-1.6-4.1,0-5.7C60.5,86.9,63,86.9,64.6,88.5z M59.9,67.5c1.6,1.6,1.6,4.1,0,5.7c-1.6,1.6-4.1,1.6-5.7,0
		c-1.6-1.6-1.6-4.1,0-5.7C55.8,66,58.4,66,59.9,67.5z M48.9,48.3c1.6-1.6,4.1-1.6,5.7,0c1.6,1.6,1.6,4.1,0,5.7
		c-1.6,1.6-4.1,1.6-5.7,0C47.4,52.4,47.4,49.8,48.9,48.3z M41.9,91.2c-1.6,1.6-4.1,1.6-5.7,0c-1.6-1.6-1.6-4.1,0-5.7
		c1.6-1.6,4.1-1.6,5.7,0C43.5,87.1,43.5,89.7,41.9,91.2z M33.8,63.4c1.6-1.6,4.1-1.6,5.7,0c1.6,1.6,1.6,4.1,0,5.6
		c-1.6,1.6-4.1,1.6-5.7,0C32.3,67.4,32.3,64.9,33.8,63.4z"/><path id="XMLID_527_" fill="#fe7c90" d="M46.2,104c7.7-0.6,22.2-3.2,32.1-13.1c5.8-5.8,7.6-11.9,5.6-18.6c-1.3-4.5-4.3-9.3-9.2-14.8
		c-7.6-7.5-13.7-11.8-19.4-13.5c-1.8-0.5-3.5-0.8-5.1-0.8c-4.8,0-9.2,2.1-13.5,6.4c-9.9,9.9-12.5,24.4-13.1,32.1
		c-0.7,8.7,0.3,16,1.9,20.3C29.7,103.6,37.2,104.7,46.2,104z M74,73.4c1.6-1.6,4.1-1.6,5.7,0c1.6,1.6,1.6,4.1,0,5.7
		c-1.6,1.6-4.1,1.6-5.7,0C72.5,77.5,72.5,74.9,74,73.4z M64.6,88.5c1.6,1.6,1.6,4.1,0,5.7c-1.6,1.6-4.1,1.6-5.7,0
		c-1.6-1.6-1.6-4.1,0-5.7C60.5,86.9,63,86.9,64.6,88.5z M59.9,67.5c1.6,1.6,1.6,4.1,0,5.7c-1.6,1.6-4.1,1.6-5.7,0
		c-1.6-1.6-1.6-4.1,0-5.7C55.8,66,58.4,66,59.9,67.5z M48.9,48.3c1.6-1.6,4.1-1.6,5.7,0c1.6,1.6,1.6,4.1,0,5.7
		c-1.6,1.6-4.1,1.6-5.7,0C47.4,52.4,47.4,49.8,48.9,48.3z M41.9,91.2c-1.6,1.6-4.1,1.6-5.7,0c-1.6-1.6-1.6-4.1,0-5.7
		c1.6-1.6,4.1-1.6,5.7,0C43.5,87.1,43.5,89.7,41.9,91.2z M33.8,63.4c1.6-1.6,4.1-1.6,5.7,0c1.6,1.6,1.6,4.1,0,5.6
		c-1.6,1.6-4.1,1.6-5.7,0C32.3,67.4,32.3,64.9,33.8,63.4z"/><g id="XMLID_636_"><path id="XMLID_303_" fill="#27c76f" d="M69.5,35.6c-1.9-2.2-3.9-4.5-5.1-7.1c-0.4,0.9-0.7,1.9-1,3.1c0.1,2.5,0.7,5.3,2.1,8.4
			c2.1,4.7,6.1,8.5,8.4,10.4c0.5-1,1.1-2.4,1.5-4c0,0,0,0,0,0c0-0.1,0-0.1,0-0.2c-0.1-0.9-0.2-1.8-0.6-2.7
			C73.9,40.7,71.7,38.1,69.5,35.6z"/><path id="XMLID_302_" fill="#27c76f" d="M96,35c-3-0.2-9.6,0-13.3,3.7c-1.3,1.3-2.2,3-2.8,4.8c0,1.2-0.2,2.4-0.4,3.5c0,0.5,0,1,0,1.4
			c0.6,0,1.4,0.1,2.3,0c1-0.2,2.1-0.3,3.2-0.3c2.8-0.4,5.8-1.4,7.9-3.5c1.6-1.6,2.5-3.7,3.1-5.8C96.1,37.3,96,35.9,96,35z"/><path id="XMLID_304_" fill="#27c76f" d="M87.4,55c-1.2-0.4-2.3-0.6-3.4-0.6c-1.1,0.1-2.1,0.2-3.1,0.3c-0.8,0.2-1.6,0.4-2.3,0.6
			c2.1,2.3,5.4,5.4,9.3,7.2c5,2.2,9.1,2.4,12.2,1.8c-1.7-1.1-3.3-2.5-4.8-3.8C92.9,58.3,90.3,56,87.4,55z"/></g><g id="XMLID_184_"><circle id="XMLID_522_" cx="57.1" cy="71.4" r="4.8" fill="#d93e5b"/><circle id="XMLID_519_" cx="39" cy="89.4" r="4.8" fill="#d93e5b"/><g id="XMLID_513_"><circle id="XMLID_518_" cx="51.7" cy="52.1" r="4.8" fill="#d93e5b"/><circle id="XMLID_514_" cx="76.8" cy="77.2" r="4.8" fill="#d93e5b"/></g><g id="XMLID_506_"><circle id="XMLID_512_" cx="36.6" cy="67.2" r="4.8" fill="#d93e5b"/><circle id="XMLID_509_" cx="61.7" cy="92.3" r="4.8" fill="#d93e5b"/></g><path id="XMLID_935_" fill="#231f20" d="M31,49.6c-0.5,0-0.9-0.2-1.3-0.5c-0.8-0.7-0.9-2-0.2-2.8c0.2-0.3,0.5-0.6,0.7-0.8c0.7-0.8,2-0.9,2.8-0.1
			c0.8,0.7,0.9,2,0.1,2.8c-0.2,0.2-0.5,0.5-0.7,0.8C32.1,49.4,31.5,49.6,31,49.6z"/><circle cx="57.1" cy="70.4" r="4" fill="#231f20"/><circle cx="39.1" cy="88.4" r="4" fill="#231f20"/><circle id="XMLID_190_" cx="51.8" cy="51.1" r="4" fill="#231f20"/><circle id="XMLID_69_" cx="76.9" cy="76.2" r="4" fill="#231f20"/><circle id="XMLID_187_" cx="36.7" cy="66.2" r="4" fill="#231f20"/><circle id="XMLID_186_" cx="61.8" cy="91.3" r="4" fill="#231f20"/></g><path id="XMLID_237_" fill="#231f20" d="M110.9,61.3c-0.4-0.7-1.2-1.2-2-1.1c-3.3,0.4-6.2-2.1-9.6-5c-2.2-1.9-4.4-3.8-7-5.2c1.2-0.7,2.4-1.5,3.4-2.5
		c6.4-6.4,4.8-17.8,4.7-18.3c-0.1-0.9-0.8-1.6-1.7-1.7c-0.5-0.1-11.9-1.6-18.3,4.7c-1,1-1.8,2.2-2.5,3.4c-1.4-2.5-3.2-4.7-5.1-6.8
		c-2.9-3.4-5.5-6.3-5-9.6c0.1-0.8-0.3-1.6-1.1-2c-0.7-0.4-1.7-0.3-2.3,0.3c-2.6,2.4-8,11.2-2.9,23.6c-7.9-4.8-16.6-6.7-25.5-0.8
		c-0.9,0.6-1.2,1.9-0.6,2.8s1.9,1.2,2.8,0.6c9.5-6.3,19.8-2.8,34.3,11.7C89,71.6,91.5,83.1,80.9,93.7c-16.4,16.4-49.7,15.4-55.9,9.2
		c-5.4-5.4-7-31.5,3.8-49c0.6-0.9,0.3-2.2-0.6-2.8c-0.9-0.6-2.2-0.3-2.8,0.6c-11.6,18.8-10.3,46.9-3.3,54c3.4,3.4,11.4,5.4,20.8,5.4
		c13.6,0,30.3-4.2,40.7-14.6c10.3-10.3,8.9-20.8,3.2-30.1c3.7,1.6,7.2,2.2,10.2,2.2c7,0,11.8-3.2,13.4-5
		C111.2,62.9,111.3,62,110.9,61.3z M83.3,35.1c3.7-3.7,10.3-3.9,13.3-3.7c0.2,3,0,9.6-3.7,13.3c-2.1,2.1-5.1,3.1-7.9,3.5
		c-1.1,0-2.1,0.1-3.1,0.3c-0.9,0-1.7,0-2.3,0c0-0.4,0-0.9,0-1.4c0.3-1.4,0.5-3,0.4-4.6C80.3,39.8,81.3,37,83.3,35.1z M64.8,24.4
		c1.1,2.5,3.1,4.8,5.1,7.1c2.2,2.5,4.4,5.1,5.4,8c0.3,0.9,0.5,1.9,0.6,2.8c-0.2,1.6-0.3,3-0.4,4.3c-0.4,1.6-1,3-1.5,4
		c-2.3-1.9-6.3-5.7-8.4-10.4C62.5,33.1,63.4,27.7,64.8,24.4z M88,62.5L88,62.5c-4.7-2.1-8.5-6.2-10.4-8.4c1.1-0.6,2.7-1.3,4.6-1.6
		c0.9,0,2-0.1,3.1-0.3c1.1,0,2.3,0.2,3.4,0.6c2.9,1,5.5,3.3,8,5.4c2.2,1.9,4.5,3.9,7.1,5.1C100.4,64.7,95,65.6,88,62.5z"/></svg>