<?xml version="1.0" encoding="iso-8859-1"?>
<!-- Generator: Adobe Illustrator 19.0.0, SVG Export Plug-In . SVG Version: 6.00 Build 0)  -->
<svg xmlns="http://www.w3.org/2000/svg" xmlns:xlink="http://www.w3.org/1999/xlink" version="1.1" id="Layer_1" x="0px" y="0px" viewBox="0 0 414.531 414.531" style="enable-background:new 0 0 414.531 414.531;" xml:space="preserve" width="100" height="100">
<g>
	<g>
		<g>
			<path style="fill:#77BC1F;" d="M197.843,19.659c0,0-17.036-1.536-31.605,4.743C159.423,10.076,145.6,0,145.6,0     s-13.824,10.074-20.64,24.402c-14.572-6.28-31.606-4.743-31.606-4.743s-6.616,29.394,7.813,45.85     c14.427,16.456,44.432,13.739,44.432,13.739s30.008,2.717,44.434-13.739C204.46,49.052,197.843,19.659,197.843,19.659z"/>
			<path style="opacity:0.3;fill:#218649;" d="M145.6,0c0,0-13.824,10.074-20.64,24.402c-14.572-6.28-31.606-4.743-31.606-4.743     s-6.616,29.394,7.813,45.85c14.427,16.456,44.432,13.739,44.432,13.739L145.6,0z"/>
		</g>
		<path style="fill:#FF5959;" d="M145.598,347.226c68.448,0,123.939-122.519,123.939-179.689    c0.002-57.172-55.489-96.142-123.939-96.142c-68.45,0-123.939,38.97-123.939,96.141    C21.657,224.707,77.148,347.226,145.598,347.226z"/>
		<path style="opacity:0.3;fill:#222222;" d="M27.635,206.871c16.075,60.81,62.808,140.354,117.963,140.354    c55.154,0,101.887-79.547,117.963-140.354H27.635z"/>
		<g>
			<path style="fill:#FEDD3D;" d="M138.391,99.723c-0.001-3.983,3.227-7.211,7.209-7.211c3.984,0.001,7.214,3.227,7.212,7.212     c0.002,3.983-3.227,12.941-7.212,12.941C141.617,112.665,138.389,103.708,138.391,99.723z"/>
			<path style="fill:#FEDD3D;" d="M138.39,188.541c0-3.983,3.228-7.213,7.212-7.213s7.212,3.23,7.212,7.213     c0,3.982-3.229,12.943-7.212,12.941C141.619,201.482,138.389,192.524,138.39,188.541z"/>
			<path style="fill:#FEDD3D;" d="M138.39,300.539c0-3.984,3.227-7.212,7.212-7.212c3.98,0,7.212,3.228,7.212,7.212     c0,3.985-3.229,12.941-7.212,12.941C141.619,313.481,138.39,304.524,138.39,300.539z"/>
			<path style="fill:#FEDD3D;" d="M125.512,143.518c-0.001-3.983-3.229-7.211-7.214-7.213c-3.982,0-7.212,3.231-7.212,7.214     c0,3.983,3.231,12.939,7.212,12.939C122.282,156.459,125.512,147.503,125.512,143.518z"/>
			<path style="fill:#FEDD3D;" d="M99.052,104.949c0-3.982-3.229-7.211-7.212-7.21c-3.982-0.001-7.212,3.229-7.212,7.209     c0,3.985,3.228,12.944,7.212,12.943C95.824,117.892,99.052,108.934,99.052,104.949z"/>
			<path style="fill:#FEDD3D;" d="M91.841,188.541c-0.001-3.982-3.229-7.21-7.212-7.211c-3.985,0-7.214,3.229-7.214,7.211     c0.002,3.983,3.229,12.939,7.214,12.939C88.61,201.48,91.842,192.524,91.841,188.541z"/>
			<path style="fill:#FEDD3D;" d="M105.212,277.225c-0.002-3.982-3.229-7.212-7.213-7.213c-3.982,0-7.212,3.23-7.213,7.213     c0.002,3.985,3.229,12.939,7.212,12.939C101.982,290.164,105.21,281.208,105.212,277.225z"/>
			<path style="fill:#FEDD3D;" d="M68.773,143.518c0.001-3.983-3.229-7.21-7.212-7.212c-3.982,0-7.212,3.229-7.212,7.212     c0,3.985,3.229,12.941,7.212,12.941C65.545,156.459,68.774,147.503,68.773,143.518z"/>
			<path style="fill:#FEDD3D;" d="M125.511,234.301c0.001-3.982-3.228-7.211-7.213-7.212c-3.98,0-7.212,3.229-7.212,7.212     c0,3.985,3.229,12.941,7.211,12.943C122.283,247.245,125.511,238.286,125.511,234.301z"/>
			<path style="fill:#FEDD3D;" d="M68.773,234.301c0.001-3.982-3.229-7.212-7.212-7.211c-3.983,0-7.212,3.229-7.212,7.211     c0.001,3.985,3.229,12.943,7.212,12.944C65.543,247.245,68.774,238.287,68.773,234.301z"/>
			<path style="fill:#FEDD3D;" d="M165.691,143.518c0-3.984,3.23-7.213,7.213-7.211c3.981-0.001,7.213,3.227,7.213,7.211     c0,3.984-3.231,12.941-7.213,12.941C168.92,156.459,165.691,147.503,165.691,143.518z"/>
			<path style="fill:#FEDD3D;" d="M192.15,104.95c0.001-3.983,3.23-7.211,7.212-7.212c3.983,0.001,7.213,3.23,7.213,7.212     c-0.001,3.983-3.228,12.941-7.213,12.941C195.381,117.892,192.15,108.935,192.15,104.95z"/>
			<path style="fill:#FEDD3D;" d="M199.362,188.541c0-3.982,3.231-7.21,7.212-7.213c3.985,0.003,7.213,3.23,7.213,7.213     s-3.228,12.939-7.213,12.939C202.592,201.48,199.362,192.523,199.362,188.541z"/>
			<path style="fill:#FEDD3D;" d="M185.991,277.225c0.002-3.982,3.23-7.212,7.214-7.214c3.984,0.001,7.214,3.231,7.212,7.214     c0,3.984-3.228,12.941-7.212,12.939C189.221,290.164,185.993,281.209,185.991,277.225z"/>
			<path style="fill:#FEDD3D;" d="M222.428,143.518c0-3.983,3.229-7.211,7.214-7.211c3.983,0,7.212,3.228,7.211,7.211     c0.001,3.985-3.23,12.941-7.211,12.941C225.66,156.459,222.429,147.503,222.428,143.518z"/>
			<path style="fill:#FEDD3D;" d="M165.691,234.303c0-3.984,3.23-7.214,7.213-7.212c3.981-0.001,7.213,3.227,7.213,7.212     c0.001,3.983-3.233,12.942-7.213,12.942C168.92,247.244,165.691,238.286,165.691,234.303z"/>
			<path style="fill:#FEDD3D;" d="M222.428,234.301c0-3.982,3.229-7.211,7.213-7.21c3.983-0.002,7.213,3.227,7.212,7.21     c0.001,3.985-3.228,12.943-7.211,12.943C225.658,247.245,222.428,238.286,222.428,234.301z"/>
		</g>
	</g>
	<path style="opacity:0.3;fill:#222222;" d="M265.369,141.356c-8.018-1.616-16.034-2.452-23.948-2.452   c-27.832,0-52.634,10.09-71.723,29.18c-23.06,23.058-46.046,67.946-57.199,111.696c-4.894,19.196-7.327,37.092-7.36,53.353   c12.681,8.833,26.291,14.093,40.46,14.093c68.448,0,123.939-122.519,123.939-179.689   C269.537,158.304,268.084,149.551,265.369,141.356z"/>
	<g>
		<path style="fill:#77BC1F;" d="M95.253,256.75c0,0-15.824,9.874-24.359,24.917c-15.354-7.97-33.999-7.632-33.999-7.632    s-5.388,17.853-1.887,34.795c-16.8,4.127-30.597,16.674-30.597,16.674s13.588,29.906,36.96,34.721    c23.369,4.811,47.668-17.293,47.668-17.293s27.874-17.382,29.588-41.18C120.343,277.954,95.253,256.75,95.253,256.75z"/>
		<path style="opacity:0.3;fill:#218649;" d="M36.894,274.035c0,0-5.388,17.853-1.887,34.795    c-16.8,4.127-30.597,16.674-30.597,16.674s13.588,29.906,36.96,34.721c23.369,4.811,47.668-17.293,47.668-17.293L36.894,274.035z"/>
	</g>
	<g>
		<g>
			<path style="fill:#77BC1F;" d="M410.12,199.379c0,0-10.959-13.134-25.701-18.995c5.311-14.95,2.66-31.849,2.66-31.849     s-16.897-2.65-31.848,2.66c-5.863-14.744-18.996-25.702-18.996-25.702s-25.463,16.107-26.896,37.944s21.704,41.134,21.704,41.134     s19.298,23.14,41.134,21.705C394.015,224.841,410.12,199.379,410.12,199.379z"/>
			<path style="opacity:0.3;fill:#218649;" d="M387.079,148.535c0,0-16.897-2.65-31.848,2.66     c-5.863-14.744-18.996-25.702-18.996-25.702s-25.463,16.107-26.896,37.944s21.704,41.134,21.704,41.134L387.079,148.535z"/>
		</g>
		<path style="fill:#FF5959;" d="M141.552,394.06c48.401,48.4,174.273,1.004,214.699-39.422    c40.428-40.426,28.744-107.221-19.656-155.621c-48.401-48.401-115.194-60.082-155.62-19.656    C140.548,219.787,93.152,345.659,141.552,394.06z"/>
		<path style="opacity:0.3;fill:#222222;" d="M157.386,211.401c-31.633,54.366-54.834,143.659-15.834,182.659    s128.294,15.797,182.659-15.834L157.386,211.401z"/>
		<g>
			<path style="fill:#FEDD3D;" d="M311.468,213.952c2.816-2.816,7.381-2.816,10.197-0.001c2.815,2.818,2.817,7.384,0,10.199     c-2.816,2.818-11.435,6.869-14.251,4.052C304.597,225.387,308.649,216.77,311.468,213.952z"/>
			<path style="fill:#FEDD3D;" d="M248.664,276.756c2.816-2.816,7.383-2.816,10.198,0c2.817,2.815,2.817,7.383,0.001,10.199     c-2.816,2.816-11.436,6.868-14.252,4.052C241.796,288.19,245.845,279.572,248.664,276.756z"/>
			<path style="fill:#FEDD3D;" d="M169.468,355.951c2.817-2.817,7.383-2.817,10.2-0.002c2.815,2.816,2.816,7.384,0,10.201     c-2.818,2.816-11.436,6.867-14.252,4.051C162.599,367.386,166.651,358.768,169.468,355.951z"/>
			<path style="fill:#FEDD3D;" d="M271.392,235.814c2.816-2.817,2.816-7.383,0-10.201c-2.815-2.815-7.385-2.815-10.2,0     c-2.817,2.817-6.865,11.436-4.051,14.25C259.959,242.682,268.576,238.631,271.392,235.814z"/>
			<path style="fill:#FEDD3D;" d="M279.956,189.832c2.816-2.815,2.815-7.382-0.001-10.198c-2.816-2.817-7.383-2.817-10.199-0.002     c-2.817,2.818-6.869,11.436-4.051,14.252C268.52,196.7,277.138,192.649,279.956,189.832z"/>
			<path style="fill:#FEDD3D;" d="M215.748,243.84c2.815-2.815,2.815-7.382,0-10.198c-2.818-2.817-7.385-2.817-10.2-0.002     c-2.816,2.818-6.867,11.433-4.049,14.25C204.314,250.705,212.931,246.658,215.748,243.84z"/>
			<path style="fill:#FEDD3D;" d="M162.494,316.004c2.815-2.816,2.815-7.384,0-10.2c-2.816-2.816-7.384-2.816-10.2,0     c-2.817,2.819-6.867,11.434-4.051,14.249C151.059,322.87,159.675,318.82,162.494,316.004z"/>
			<path style="fill:#FEDD3D;" d="M231.273,195.693c2.816-2.815,2.816-7.382,0-10.199c-2.816-2.816-7.384-2.816-10.199,0     c-2.817,2.817-6.867,11.434-4.052,14.251C219.839,202.561,228.457,198.512,231.273,195.693z"/>
			<path style="fill:#FEDD3D;" d="M207.199,300.007c2.816-2.816,2.816-7.382-0.001-10.199c-2.814-2.815-7.382-2.817-10.199,0     c-2.817,2.816-6.866,11.435-4.052,14.251C195.764,306.876,204.382,302.824,207.199,300.007z"/>
			<path style="fill:#FEDD3D;" d="M167.08,259.888c2.817-2.816,2.815-7.384-0.001-10.2c-2.817-2.816-7.384-2.816-10.199,0     c-2.817,2.818-6.868,11.435-4.053,14.251C155.642,266.755,164.261,262.706,167.08,259.888z"/>
			<path style="fill:#FEDD3D;" d="M299.803,264.226c2.817-2.817,7.384-2.817,10.2,0.001c2.815,2.814,2.817,7.383,0,10.199     c-2.816,2.816-11.434,6.866-14.25,4.051C292.936,275.658,296.987,267.042,299.803,264.226z"/>
			<path style="fill:#FEDD3D;" d="M345.785,255.662c2.816-2.815,7.383-2.814,10.2,0c2.816,2.818,2.816,7.385,0,10.201     c-2.817,2.815-11.434,6.867-14.252,4.051C338.918,267.099,342.967,258.479,345.785,255.662z"/>
			<path style="fill:#FEDD3D;" d="M291.777,319.869c2.815-2.815,7.384-2.814,10.2,0c2.815,2.819,2.815,7.385,0,10.201     c-2.816,2.815-11.433,6.866-14.25,4.049C284.912,331.304,288.961,322.686,291.777,319.869z"/>
			<path style="fill:#FEDD3D;" d="M219.613,373.125c2.818-2.816,7.385-2.816,10.202,0c2.816,2.816,2.816,7.384-0.002,10.2     c-2.817,2.816-11.433,6.867-14.249,4.049C212.749,384.559,216.797,375.942,219.613,373.125z"/>
			<path style="fill:#FEDD3D;" d="M339.925,304.345c2.816-2.817,7.382-2.815,10.199,0.001c2.816,2.816,2.816,7.383,0,10.198     c-2.817,2.818-11.435,6.867-14.25,4.052C333.058,315.779,337.107,307.162,339.925,304.345z"/>
			<path style="fill:#FEDD3D;" d="M235.61,328.419c2.817-2.817,7.384-2.817,10.199,0.001c2.817,2.815,2.818,7.383,0.001,10.199     c-2.816,2.817-11.437,6.866-14.252,4.052C228.742,339.853,232.794,331.236,235.61,328.419z"/>
			<path style="fill:#FEDD3D;" d="M275.73,368.538c2.817-2.816,7.383-2.815,10.198,0.001c2.818,2.816,2.818,7.383,0,10.198     c-2.815,2.818-11.433,6.87-14.249,4.053C268.861,379.973,272.913,371.355,275.73,368.538z"/>
		</g>
	</g>
</g>

</svg>
